# Blender v2.74 (sub 0) OBJ File: 'ModelLaunchPad8Meta.blend'
# www.blender.org
mtllib LaunchPad8Meta.mtl
o Cube.001
v -1.000000 0.500000 0.000000
v -1.000000 1.000000 0.000000
v -1.000000 0.500000 -0.500000
v -1.000000 1.000000 -0.500000
v 1.000000 0.500000 0.000000
v 1.000000 1.000000 0.000000
v 1.000000 0.500000 -0.500000
v 1.000000 1.000000 -0.500000
vn -1.000000 0.000000 0.000000
vn 0.000000 0.000000 -1.000000
vn 1.000000 0.000000 0.000000
vn 0.000000 0.000000 1.000000
vn 0.000000 -1.000000 0.000000
vn 0.000000 1.000000 0.000000
usemtl None
s off
f 2//1 4//1 3//1 1//1
f 4//2 8//2 7//2 3//2
f 8//3 6//3 5//3 7//3
f 6//4 2//4 1//4 5//4
f 1//5 3//5 7//5 5//5
f 6//6 8//6 4//6 2//6
o Cube
v 1.000000 -0.500000 -0.500000
v 1.000000 -0.500000 0.500000
v -1.000000 -0.500000 0.500000
v -0.999999 -0.500000 -0.500000
v 1.000000 0.500000 -0.499999
v 0.999999 0.500000 0.500000
v -1.000000 0.500000 0.500000
v -0.999999 0.500000 -0.500000
vn 0.000000 -1.000000 0.000000
vn 0.000000 1.000000 0.000000
vn 1.000000 0.000000 0.000000
vn -0.000000 -0.000000 1.000000
vn -1.000000 -0.000000 -0.000000
vn 0.000000 0.000000 -1.000000
usemtl Material
s off
f 9//7 10//7 11//7 12//7
f 13//8 16//8 15//8 14//8
f 9//9 13//9 14//9 10//9
f 10//10 14//10 15//10 11//10
f 11//11 15//11 16//11 12//11
f 13//12 9//12 12//12 16//12
